<svg width="1440" height="10302" viewBox="0 0 1440 10302" fill="none" xmlns="http://www.w3.org/2000/svg">
<g clip-path="url(#clip0_17_497706)">
<rect width="1440" height="10302" fill="#060A0F"/>
<g opacity="0.8" filter="url(#filter0_f_17_497706)">
<path d="M421.995 2897.5C421.995 3072.02 219.517 3227 44.9949 3227C-129.527 3227 -135.505 3072.02 -135.505 2897.5C-135.505 2722.98 -218.027 2484 -43.5052 2484C131.017 2484 421.995 2722.98 421.995 2897.5Z" fill="#130B29"/>
</g>
<g opacity="0.8" filter="url(#filter1_f_17_497706)">
<path d="M1266.99 1775.5C1266.99 1950.02 1064.52 2105 889.995 2105C715.473 2105 76 2256.02 76 2081.5C76 1906.98 626.973 1362 801.495 1362C976.017 1362 1266.99 1600.98 1266.99 1775.5Z" fill="#0B1B29"/>
</g>
<g opacity="0.04">
<rect x="32" width="1" height="10333" fill="#D9D9D9"/>
<rect x="91.7822" width="1" height="10333" fill="#D9D9D9"/>
<rect x="151.565" width="1" height="10333" fill="#D9D9D9"/>
<rect x="211.348" width="1" height="10333" fill="#D9D9D9"/>
<rect x="271.131" width="1" height="10333" fill="#D9D9D9"/>
<rect x="330.913" width="1" height="10333" fill="#D9D9D9"/>
<rect x="390.695" width="1" height="10333" fill="#D9D9D9"/>
<rect x="450.479" width="1" height="10333" fill="#D9D9D9"/>
<rect x="510.261" width="1" height="10333" fill="#D9D9D9"/>
<rect x="570.043" width="1" height="10333" fill="#D9D9D9"/>
<rect x="629.826" width="1" height="10333" fill="#D9D9D9"/>
<rect x="689.608" width="1" height="10333" fill="#D9D9D9"/>
<rect x="749.392" width="1" height="10333" fill="#D9D9D9"/>
<rect x="809.174" width="1" height="10333" fill="#D9D9D9"/>
<rect x="868.957" width="1" height="10333" fill="#D9D9D9"/>
<rect x="928.739" width="1" height="10333" fill="#D9D9D9"/>
<rect x="988.521" width="1" height="10333" fill="#D9D9D9"/>
<rect x="1048.3" width="1" height="10333" fill="#D9D9D9"/>
<rect x="1108.09" width="1" height="10333" fill="#D9D9D9"/>
<rect x="1167.87" width="1" height="10333" fill="#D9D9D9"/>
<rect x="1227.65" width="1" height="10333" fill="#D9D9D9"/>
<rect x="1287.43" width="1" height="10333" fill="#D9D9D9"/>
<rect x="1347.22" width="1" height="10333" fill="#D9D9D9"/>
<rect x="1407" width="1" height="10333" fill="#D9D9D9"/>
<rect y="32" width="1440" height="1" fill="#D9D9D9"/>
<rect y="93.1191" width="1440" height="1" fill="#D9D9D9"/>
<rect y="154.238" width="1440" height="1" fill="#D9D9D9"/>
<rect y="215.357" width="1440" height="1" fill="#D9D9D9"/>
<rect y="276.476" width="1440" height="1" fill="#D9D9D9"/>
<rect y="337.595" width="1440" height="1" fill="#D9D9D9"/>
<rect y="398.714" width="1440" height="1" fill="#D9D9D9"/>
<rect y="459.833" width="1440" height="1" fill="#D9D9D9"/>
<rect y="520.952" width="1440" height="1" fill="#D9D9D9"/>
<rect y="582.071" width="1440" height="1" fill="#D9D9D9"/>
<rect y="643.19" width="1440" height="1" fill="#D9D9D9"/>
<rect y="704.31" width="1440" height="1" fill="#D9D9D9"/>
<rect y="765.428" width="1440" height="1" fill="#D9D9D9"/>
<rect y="826.547" width="1440" height="1" fill="#D9D9D9"/>
<rect y="887.667" width="1440" height="1" fill="#D9D9D9"/>
<rect y="948.786" width="1440" height="1" fill="#D9D9D9"/>
<rect y="1009.9" width="1440" height="1" fill="#D9D9D9"/>
<rect y="1071.02" width="1440" height="1" fill="#D9D9D9"/>
<rect y="1132.14" width="1440" height="1" fill="#D9D9D9"/>
<rect y="1193.26" width="1440" height="1" fill="#D9D9D9"/>
<rect y="1254.38" width="1440" height="1" fill="#D9D9D9"/>
<rect y="1315.5" width="1440" height="1" fill="#D9D9D9"/>
<rect y="1376.62" width="1440" height="1" fill="#D9D9D9"/>
<rect y="1437.74" width="1440" height="1" fill="#D9D9D9"/>
<rect y="1498.86" width="1440" height="1" fill="#D9D9D9"/>
<rect y="1559.98" width="1440" height="1" fill="#D9D9D9"/>
<rect y="1621.09" width="1440" height="1" fill="#D9D9D9"/>
<rect y="1682.21" width="1440" height="1" fill="#D9D9D9"/>
<rect y="1743.33" width="1440" height="1" fill="#D9D9D9"/>
<rect y="1804.45" width="1440" height="1" fill="#D9D9D9"/>
<rect y="1865.57" width="1440" height="1" fill="#D9D9D9"/>
<rect y="1926.69" width="1440" height="1" fill="#D9D9D9"/>
<rect y="1987.81" width="1440" height="1" fill="#D9D9D9"/>
<rect y="2048.93" width="1440" height="1" fill="#D9D9D9"/>
<rect y="2110.05" width="1440" height="1" fill="#D9D9D9"/>
<rect y="2171.17" width="1440" height="1" fill="#D9D9D9"/>
<rect y="2232.29" width="1440" height="1" fill="#D9D9D9"/>
<rect y="2293.4" width="1440" height="1" fill="#D9D9D9"/>
<rect y="2354.52" width="1440" height="1" fill="#D9D9D9"/>
<rect y="2415.64" width="1440" height="1" fill="#D9D9D9"/>
<rect y="2476.76" width="1440" height="1" fill="#D9D9D9"/>
<rect y="2537.88" width="1440" height="1" fill="#D9D9D9"/>
<rect y="2599" width="1440" height="1" fill="#D9D9D9"/>
<rect y="2660.12" width="1440" height="1" fill="#D9D9D9"/>
<rect y="2721.24" width="1440" height="1" fill="#D9D9D9"/>
<rect y="2782.36" width="1440" height="1" fill="#D9D9D9"/>
<rect y="2843.48" width="1440" height="1" fill="#D9D9D9"/>
<rect y="2904.6" width="1440" height="1" fill="#D9D9D9"/>
<rect y="2965.71" width="1440" height="1" fill="#D9D9D9"/>
<rect y="3026.83" width="1440" height="1" fill="#D9D9D9"/>
<rect y="3087.95" width="1440" height="1" fill="#D9D9D9"/>
<rect y="3149.07" width="1440" height="1" fill="#D9D9D9"/>
<rect y="3210.19" width="1440" height="1" fill="#D9D9D9"/>
<rect y="3271.31" width="1440" height="1" fill="#D9D9D9"/>
<rect y="3332.43" width="1440" height="1" fill="#D9D9D9"/>
<rect y="3393.55" width="1440" height="1" fill="#D9D9D9"/>
<rect y="3454.67" width="1440" height="1" fill="#D9D9D9"/>
<rect y="3515.79" width="1440" height="1" fill="#D9D9D9"/>
<rect y="3576.91" width="1440" height="1" fill="#D9D9D9"/>
<rect y="3638.03" width="1440" height="1" fill="#D9D9D9"/>
<rect y="3699.14" width="1440" height="1" fill="#D9D9D9"/>
<rect y="3760.26" width="1440" height="1" fill="#D9D9D9"/>
<rect y="3821.38" width="1440" height="1" fill="#D9D9D9"/>
<rect y="3882.5" width="1440" height="1" fill="#D9D9D9"/>
<rect y="3943.62" width="1440" height="1" fill="#D9D9D9"/>
<rect y="4004.74" width="1440" height="1" fill="#D9D9D9"/>
<rect y="4065.86" width="1440" height="1" fill="#D9D9D9"/>
<rect y="4126.98" width="1440" height="1" fill="#D9D9D9"/>
<rect y="4188.1" width="1440" height="1" fill="#D9D9D9"/>
<rect y="4249.22" width="1440" height="1" fill="#D9D9D9"/>
<rect y="4310.34" width="1440" height="1" fill="#D9D9D9"/>
<rect y="4371.46" width="1440" height="1" fill="#D9D9D9"/>
<rect y="4432.57" width="1440" height="1" fill="#D9D9D9"/>
<rect y="4493.69" width="1440" height="1" fill="#D9D9D9"/>
<rect y="4554.81" width="1440" height="1" fill="#D9D9D9"/>
<rect y="4615.93" width="1440" height="1" fill="#D9D9D9"/>
<rect y="4677.05" width="1440" height="1" fill="#D9D9D9"/>
<rect y="4738.17" width="1440" height="1" fill="#D9D9D9"/>
<rect y="4799.29" width="1440" height="1" fill="#D9D9D9"/>
<rect y="4860.41" width="1440" height="1" fill="#D9D9D9"/>
<rect y="4921.53" width="1440" height="1" fill="#D9D9D9"/>
<rect y="4982.65" width="1440" height="1" fill="#D9D9D9"/>
<rect y="5043.77" width="1440" height="1" fill="#D9D9D9"/>
<rect y="5104.88" width="1440" height="1" fill="#D9D9D9"/>
<rect y="5166" width="1440" height="1" fill="#D9D9D9"/>
<rect y="5227.12" width="1440" height="1" fill="#D9D9D9"/>
<rect y="5288.24" width="1440" height="1" fill="#D9D9D9"/>
<rect y="5349.36" width="1440" height="1" fill="#D9D9D9"/>
<rect y="5410.48" width="1440" height="1" fill="#D9D9D9"/>
<rect y="5471.6" width="1440" height="1" fill="#D9D9D9"/>
<rect y="5532.72" width="1440" height="1" fill="#D9D9D9"/>
<rect y="5593.84" width="1440" height="1" fill="#D9D9D9"/>
<rect y="5654.96" width="1440" height="1" fill="#D9D9D9"/>
<rect y="5716.08" width="1440" height="1" fill="#D9D9D9"/>
<rect y="5777.2" width="1440" height="1" fill="#D9D9D9"/>
<rect y="5838.31" width="1440" height="1" fill="#D9D9D9"/>
<rect y="5899.43" width="1440" height="1" fill="#D9D9D9"/>
<rect y="5960.55" width="1440" height="1" fill="#D9D9D9"/>
<rect y="6021.67" width="1440" height="1" fill="#D9D9D9"/>
<rect y="6082.79" width="1440" height="1" fill="#D9D9D9"/>
<rect y="6143.91" width="1440" height="1" fill="#D9D9D9"/>
<rect y="6205.03" width="1440" height="1" fill="#D9D9D9"/>
<rect y="6266.15" width="1440" height="1" fill="#D9D9D9"/>
<rect y="6327.27" width="1440" height="1" fill="#D9D9D9"/>
<rect y="6388.39" width="1440" height="1" fill="#D9D9D9"/>
<rect y="6449.51" width="1440" height="1" fill="#D9D9D9"/>
<rect y="6510.62" width="1440" height="1" fill="#D9D9D9"/>
<rect y="6571.74" width="1440" height="1" fill="#D9D9D9"/>
<rect y="6632.86" width="1440" height="1" fill="#D9D9D9"/>
<rect y="6693.98" width="1440" height="1" fill="#D9D9D9"/>
<rect y="6755.1" width="1440" height="1" fill="#D9D9D9"/>
<rect y="6816.22" width="1440" height="1" fill="#D9D9D9"/>
<rect y="6877.34" width="1440" height="1" fill="#D9D9D9"/>
<rect y="6938.46" width="1440" height="1" fill="#D9D9D9"/>
<rect y="6999.58" width="1440" height="1" fill="#D9D9D9"/>
<rect y="7060.7" width="1440" height="1" fill="#D9D9D9"/>
<rect y="7121.82" width="1440" height="1" fill="#D9D9D9"/>
<rect y="7182.94" width="1440" height="1" fill="#D9D9D9"/>
<rect y="7244.05" width="1440" height="1" fill="#D9D9D9"/>
<rect y="7305.17" width="1440" height="1" fill="#D9D9D9"/>
<rect y="7366.29" width="1440" height="1" fill="#D9D9D9"/>
<rect y="7427.41" width="1440" height="1" fill="#D9D9D9"/>
<rect y="7488.53" width="1440" height="1" fill="#D9D9D9"/>
<rect y="7549.65" width="1440" height="1" fill="#D9D9D9"/>
<rect y="7610.77" width="1440" height="1" fill="#D9D9D9"/>
<rect y="7671.89" width="1440" height="1" fill="#D9D9D9"/>
<rect y="7733.01" width="1440" height="1" fill="#D9D9D9"/>
<rect y="7794.13" width="1440" height="1" fill="#D9D9D9"/>
<rect y="7855.25" width="1440" height="1" fill="#D9D9D9"/>
<rect y="7916.37" width="1440" height="1" fill="#D9D9D9"/>
<rect y="7977.48" width="1440" height="1" fill="#D9D9D9"/>
<rect y="8038.6" width="1440" height="1" fill="#D9D9D9"/>
<rect y="8099.72" width="1440" height="1" fill="#D9D9D9"/>
<rect y="8160.84" width="1440" height="1" fill="#D9D9D9"/>
<rect y="8221.96" width="1440" height="1" fill="#D9D9D9"/>
<rect y="8283.08" width="1440" height="1" fill="#D9D9D9"/>
<rect y="8344.2" width="1440" height="1" fill="#D9D9D9"/>
<rect y="8405.32" width="1440" height="1" fill="#D9D9D9"/>
<rect y="8466.44" width="1440" height="1" fill="#D9D9D9"/>
<rect y="8527.56" width="1440" height="1" fill="#D9D9D9"/>
<rect y="8588.68" width="1440" height="1" fill="#D9D9D9"/>
<rect y="8649.79" width="1440" height="1" fill="#D9D9D9"/>
<rect y="8710.91" width="1440" height="1" fill="#D9D9D9"/>
<rect y="8772.03" width="1440" height="1" fill="#D9D9D9"/>
<rect y="8833.15" width="1440" height="1" fill="#D9D9D9"/>
<rect y="8894.27" width="1440" height="1" fill="#D9D9D9"/>
<rect y="8955.39" width="1440" height="1" fill="#D9D9D9"/>
<rect y="9016.51" width="1440" height="1" fill="#D9D9D9"/>
<rect y="9077.63" width="1440" height="1" fill="#D9D9D9"/>
<rect y="9138.75" width="1440" height="1" fill="#D9D9D9"/>
<rect y="9199.87" width="1440" height="1" fill="#D9D9D9"/>
<rect y="9260.99" width="1440" height="1" fill="#D9D9D9"/>
<rect y="9322.11" width="1440" height="1" fill="#D9D9D9"/>
<rect y="9383.22" width="1440" height="1" fill="#D9D9D9"/>
<rect y="9444.34" width="1440" height="1" fill="#D9D9D9"/>
<rect y="9505.46" width="1440" height="1" fill="#D9D9D9"/>
<rect y="9566.58" width="1440" height="1" fill="#D9D9D9"/>
<rect y="9627.7" width="1440" height="1" fill="#D9D9D9"/>
<rect y="9688.82" width="1440" height="1" fill="#D9D9D9"/>
<rect y="9749.94" width="1440" height="1" fill="#D9D9D9"/>
<rect y="9811.06" width="1440" height="1" fill="#D9D9D9"/>
<rect y="9872.18" width="1440" height="1" fill="#D9D9D9"/>
<rect y="9933.3" width="1440" height="1" fill="#D9D9D9"/>
<rect y="9994.42" width="1440" height="1" fill="#D9D9D9"/>
<rect y="10055.5" width="1440" height="1" fill="#D9D9D9"/>
<rect y="10116.7" width="1440" height="1" fill="#D9D9D9"/>
<rect y="10177.8" width="1440" height="1" fill="#D9D9D9"/>
<rect y="10238.9" width="1440" height="1" fill="#D9D9D9"/>
<rect y="10300" width="1440" height="1" fill="#D9D9D9"/>
</g>
<g opacity="0.8" filter="url(#filter2_f_17_497706)">
<path d="M1297.99 530.5C1297.99 705.022 1095.52 860 920.995 860C746.473 860 740.495 705.022 740.495 530.5C740.495 355.978 657.973 117 832.495 117C1007.02 117 1297.99 355.978 1297.99 530.5Z" fill="#130B29"/>
</g>
<g opacity="0.4" filter="url(#filter3_f_17_497706)">
<path d="M719 9808.5C719 9983.02 494.763 10138 301.487 10138C108.21 10138 101.59 9983.02 101.59 9808.5C101.59 9633.98 10.1998 9395 203.476 9395C396.753 9395 719 9633.98 719 9808.5Z" fill="#130B29"/>
</g>
<g opacity="0.8" filter="url(#filter4_f_17_497706)">
<path d="M1316.99 1321.5C1316.99 1496.02 1114.52 1651 939.995 1651C765.473 1651 759.495 1496.02 759.495 1321.5C759.495 1146.98 676.973 908 851.495 908C1026.02 908 1316.99 1146.98 1316.99 1321.5Z" fill="#050C14"/>
</g>
<g opacity="0.8" filter="url(#filter5_f_17_497706)">
<path d="M573.15 704.227C409.887 765.896 193.359 631.243 131.69 467.98C70.0214 304.716 212.889 244.361 376.152 182.692C539.416 121.024 733.817 -40.6198 795.486 122.643C857.154 285.907 736.413 642.558 573.15 704.227Z" fill="#050C14"/>
</g>
<g opacity="0.6" filter="url(#filter6_f_17_497706)">
<path d="M634.129 2673.89C470.866 2735.55 254.339 2600.9 192.67 2437.64C131.001 2274.38 273.869 2214.02 437.132 2152.35C600.395 2090.68 794.796 1929.04 856.465 2092.3C918.134 2255.57 797.392 2612.22 634.129 2673.89Z" fill="#050C14"/>
</g>
<g opacity="0.4" filter="url(#filter7_f_17_497706)">
<path d="M973.129 3614.89C809.866 3676.55 593.339 3541.9 531.67 3378.64C470.001 3215.38 612.869 3155.02 776.132 3093.35C939.395 3031.68 1133.8 2870.04 1195.47 3033.3C1257.13 3196.57 1136.39 3553.22 973.129 3614.89Z" fill="#050C14"/>
</g>
<g opacity="0.9" filter="url(#filter8_f_17_497706)">
<path d="M454.129 3681.89C290.866 3743.55 74.3387 3608.9 12.6698 3445.64C-48.9991 3282.38 93.8686 3222.02 257.132 3160.35C420.395 3098.68 614.796 2937.04 676.465 3100.3C738.134 3263.57 617.392 3620.22 454.129 3681.89Z" fill="#050C14"/>
</g>
<g opacity="0.6" filter="url(#filter9_f_17_497706)">
<path d="M526 1164C435.159 1313.02 214.516 889.841 65.4998 799C-83.5166 708.159 -134.894 645.36 -44.0534 496.343C46.7873 347.327 113.216 246.82 262.233 337.661C411.249 428.502 616.84 1014.98 526 1164Z" fill="url(#paint0_linear_17_497706)" style="mix-blend-mode:soft-light"/>
</g>
<g opacity="0.8" filter="url(#filter10_f_17_497706)">
<path d="M1468.86 8602.16C1468.86 8776.68 1266.38 8931.66 1091.86 8931.66C917.336 8931.66 911.358 8776.68 911.358 8602.16C911.358 8427.64 828.836 8188.66 1003.36 8188.66C1177.88 8188.66 1468.86 8427.64 1468.86 8602.16Z" fill="#130B29"/>
</g>
<g opacity="0.8" filter="url(#filter11_f_17_497706)">
<path d="M1487.86 9393.16C1487.86 9567.68 1285.38 9722.66 1110.86 9722.66C936.336 9722.66 930.358 9567.68 930.358 9393.16C930.358 9218.64 847.836 8979.66 1022.36 8979.66C1196.88 8979.66 1487.86 9218.64 1487.86 9393.16Z" fill="#050C14"/>
</g>
<g opacity="0.8" filter="url(#filter12_f_17_497706)">
<path d="M744.014 8775.89C580.75 8837.55 364.223 8702.9 302.554 8539.64C240.885 8376.38 383.753 8316.02 547.016 8254.35C710.279 8192.68 904.68 8031.04 966.349 8194.3C1028.02 8357.57 907.277 8714.22 744.014 8775.89Z" fill="#050C14"/>
</g>
<g opacity="0.6" filter="url(#filter13_f_17_497706)">
<path d="M696.864 9235.66C606.023 9384.67 385.38 8961.5 236.364 8870.66C87.3476 8779.82 35.9702 8717.02 126.811 8568C217.652 8418.99 284.08 8318.48 433.097 8409.32C582.113 8500.16 787.705 9086.64 696.864 9235.66Z" fill="url(#paint1_linear_17_497706)" style="mix-blend-mode:soft-light"/>
</g>
<g opacity="0.8" filter="url(#filter14_f_17_497706)">
<path d="M75.2447 6468.69C30.0751 6637.26 185.542 6839.36 354.118 6884.53C522.693 6929.7 568.579 6781.55 613.748 6612.98C658.918 6444.4 800.48 6234.92 631.905 6189.76C463.33 6144.59 120.414 6300.11 75.2447 6468.69Z" fill="#130B29"/>
</g>
<g opacity="0.8" filter="url(#filter15_f_17_497706)">
<path d="M-147.833 7227.82C-193.003 7396.39 -37.5357 7598.49 131.04 7643.66C299.615 7688.83 345.501 7540.68 390.67 7372.11C435.84 7203.53 577.402 6994.05 408.827 6948.89C240.251 6903.72 -102.664 7059.24 -147.833 7227.82Z" fill="#050C14"/>
</g>
<g opacity="0.8" filter="url(#filter16_f_17_497706)">
<path d="M730.428 6824.1C872.167 6925.92 1116.17 6851.9 1217.99 6710.16C1319.81 6568.42 1197.43 6473.14 1055.7 6371.32C913.956 6269.5 768.016 6063.05 666.193 6204.79C564.369 6346.52 588.688 6722.27 730.428 6824.1Z" fill="#050C14"/>
</g>
<g opacity="0.6" filter="url(#filter17_f_17_497706)">
<path d="M656.972 7280.41C706.15 7447.86 1028.8 7096.21 1196.25 7047.03C1363.7 6997.85 1429.58 6950.49 1380.4 6783.04C1331.23 6615.59 1293.07 6501.32 1125.62 6550.49C958.174 6599.67 607.795 7112.96 656.972 7280.41Z" fill="url(#paint2_linear_17_497706)" style="mix-blend-mode:soft-light"/>
</g>
<g opacity="0.8" filter="url(#filter18_f_17_497706)">
<path d="M849.999 4252.22C698.859 4339.48 665.883 4592.32 753.144 4743.46C840.405 4894.6 977.609 4822.29 1128.75 4735.03C1279.89 4647.77 1528.11 4599.75 1440.85 4448.61C1353.59 4297.47 1001.14 4164.96 849.999 4252.22Z" fill="#130B29"/>
</g>
<g opacity="0.8" filter="url(#filter19_f_17_497706)">
<path d="M155.473 4631.27C4.33292 4718.53 -28.6431 4971.37 58.6179 5122.51C145.879 5273.65 283.083 5201.34 434.223 5114.08C585.364 5026.82 833.586 4978.79 746.325 4827.65C659.064 4676.51 306.614 4544.01 155.473 4631.27Z" fill="#050C14"/>
</g>
<g opacity="0.8" filter="url(#filter20_f_17_497706)">
<path d="M1061.97 4966.82C1090.19 5139.04 1315.07 5259.24 1487.3 5231.01C1659.52 5202.79 1640.36 5048.88 1612.13 4876.66C1583.91 4704.43 1626.69 4455.26 1454.47 4483.48C1282.24 4511.7 1033.75 4794.6 1061.97 4966.82Z" fill="#050C14"/>
</g>
<g opacity="0.6" filter="url(#filter21_f_17_497706)">
<path d="M687.369 5237.54C603.738 5390.72 1080.54 5370.21 1233.72 5453.84C1386.9 5537.48 1466.97 5550.57 1550.6 5397.39C1634.24 5244.21 1688.06 5136.43 1534.88 5052.8C1381.71 4969.17 771.001 5084.36 687.369 5237.54Z" fill="url(#paint3_linear_17_497706)" style="mix-blend-mode:soft-light"/>
</g>
<g opacity="0.6" filter="url(#filter22_f_17_497706)">
<path d="M1511.88 3368.15C1491.65 3541.5 1114.32 3249.31 940.97 3229.08C767.625 3208.85 694.7 3173.27 714.93 2999.93C735.16 2826.58 753.491 2707.51 926.837 2727.74C1100.18 2747.97 1532.11 3194.81 1511.88 3368.15Z" fill="url(#paint4_linear_17_497706)" style="mix-blend-mode:soft-light"/>
</g>
</g>
<defs>
<filter id="filter0_f_17_497706" x="-449" y="2190" width="1165" height="1331" filterUnits="userSpaceOnUse" color-interpolation-filters="sRGB">
<feFlood flood-opacity="0" result="BackgroundImageFix"/>
<feBlend mode="normal" in="SourceGraphic" in2="BackgroundImageFix" result="shape"/>
<feGaussianBlur stdDeviation="147" result="effect1_foregroundBlur_17_497706"/>
</filter>
<filter id="filter1_f_17_497706" x="-218" y="1068" width="1779" height="1391.66" filterUnits="userSpaceOnUse" color-interpolation-filters="sRGB">
<feFlood flood-opacity="0" result="BackgroundImageFix"/>
<feBlend mode="normal" in="SourceGraphic" in2="BackgroundImageFix" result="shape"/>
<feGaussianBlur stdDeviation="147" result="effect1_foregroundBlur_17_497706"/>
</filter>
<filter id="filter2_f_17_497706" x="427" y="-177" width="1164.99" height="1331" filterUnits="userSpaceOnUse" color-interpolation-filters="sRGB">
<feFlood flood-opacity="0" result="BackgroundImageFix"/>
<feBlend mode="normal" in="SourceGraphic" in2="BackgroundImageFix" result="shape"/>
<feGaussianBlur stdDeviation="147" result="effect1_foregroundBlur_17_497706"/>
</filter>
<filter id="filter3_f_17_497706" x="-214" y="9101" width="1227" height="1331" filterUnits="userSpaceOnUse" color-interpolation-filters="sRGB">
<feFlood flood-opacity="0" result="BackgroundImageFix"/>
<feBlend mode="normal" in="SourceGraphic" in2="BackgroundImageFix" result="shape"/>
<feGaussianBlur stdDeviation="147" result="effect1_foregroundBlur_17_497706"/>
</filter>
<filter id="filter4_f_17_497706" x="446" y="614" width="1164.99" height="1331" filterUnits="userSpaceOnUse" color-interpolation-filters="sRGB">
<feFlood flood-opacity="0" result="BackgroundImageFix"/>
<feBlend mode="normal" in="SourceGraphic" in2="BackgroundImageFix" result="shape"/>
<feGaussianBlur stdDeviation="147" result="effect1_foregroundBlur_17_497706"/>
</filter>
<filter id="filter5_f_17_497706" x="-176.96" y="-242.206" width="1282.83" height="1255.69" filterUnits="userSpaceOnUse" color-interpolation-filters="sRGB">
<feFlood flood-opacity="0" result="BackgroundImageFix"/>
<feBlend mode="normal" in="SourceGraphic" in2="BackgroundImageFix" result="shape"/>
<feGaussianBlur stdDeviation="147" result="effect1_foregroundBlur_17_497706"/>
</filter>
<filter id="filter6_f_17_497706" x="-115.98" y="1727.45" width="1282.83" height="1255.69" filterUnits="userSpaceOnUse" color-interpolation-filters="sRGB">
<feFlood flood-opacity="0" result="BackgroundImageFix"/>
<feBlend mode="normal" in="SourceGraphic" in2="BackgroundImageFix" result="shape"/>
<feGaussianBlur stdDeviation="147" result="effect1_foregroundBlur_17_497706"/>
</filter>
<filter id="filter7_f_17_497706" x="223.02" y="2668.45" width="1282.83" height="1255.69" filterUnits="userSpaceOnUse" color-interpolation-filters="sRGB">
<feFlood flood-opacity="0" result="BackgroundImageFix"/>
<feBlend mode="normal" in="SourceGraphic" in2="BackgroundImageFix" result="shape"/>
<feGaussianBlur stdDeviation="147" result="effect1_foregroundBlur_17_497706"/>
</filter>
<filter id="filter8_f_17_497706" x="-295.98" y="2735.45" width="1282.83" height="1255.69" filterUnits="userSpaceOnUse" color-interpolation-filters="sRGB">
<feFlood flood-opacity="0" result="BackgroundImageFix"/>
<feBlend mode="normal" in="SourceGraphic" in2="BackgroundImageFix" result="shape"/>
<feGaussianBlur stdDeviation="147" result="effect1_foregroundBlur_17_497706"/>
</filter>
<filter id="filter9_f_17_497706" x="-383.145" y="9.09521" width="1225.51" height="1480.4" filterUnits="userSpaceOnUse" color-interpolation-filters="sRGB">
<feFlood flood-opacity="0" result="BackgroundImageFix"/>
<feBlend mode="normal" in="SourceGraphic" in2="BackgroundImageFix" result="shape"/>
<feGaussianBlur stdDeviation="147" result="effect1_foregroundBlur_17_497706"/>
</filter>
<filter id="filter10_f_17_497706" x="597.863" y="7894.66" width="1164.99" height="1331" filterUnits="userSpaceOnUse" color-interpolation-filters="sRGB">
<feFlood flood-opacity="0" result="BackgroundImageFix"/>
<feBlend mode="normal" in="SourceGraphic" in2="BackgroundImageFix" result="shape"/>
<feGaussianBlur stdDeviation="147" result="effect1_foregroundBlur_17_497706"/>
</filter>
<filter id="filter11_f_17_497706" x="616.863" y="8685.66" width="1164.99" height="1331" filterUnits="userSpaceOnUse" color-interpolation-filters="sRGB">
<feFlood flood-opacity="0" result="BackgroundImageFix"/>
<feBlend mode="normal" in="SourceGraphic" in2="BackgroundImageFix" result="shape"/>
<feGaussianBlur stdDeviation="147" result="effect1_foregroundBlur_17_497706"/>
</filter>
<filter id="filter12_f_17_497706" x="-6.09668" y="7829.45" width="1282.83" height="1255.69" filterUnits="userSpaceOnUse" color-interpolation-filters="sRGB">
<feFlood flood-opacity="0" result="BackgroundImageFix"/>
<feBlend mode="normal" in="SourceGraphic" in2="BackgroundImageFix" result="shape"/>
<feGaussianBlur stdDeviation="147" result="effect1_foregroundBlur_17_497706"/>
</filter>
<filter id="filter13_f_17_497706" x="-212.28" y="8080.75" width="1225.51" height="1480.4" filterUnits="userSpaceOnUse" color-interpolation-filters="sRGB">
<feFlood flood-opacity="0" result="BackgroundImageFix"/>
<feBlend mode="normal" in="SourceGraphic" in2="BackgroundImageFix" result="shape"/>
<feGaussianBlur stdDeviation="147" result="effect1_foregroundBlur_17_497706"/>
</filter>
<filter id="filter14_f_17_497706" x="-226.673" y="5887.84" width="1233.04" height="1298.91" filterUnits="userSpaceOnUse" color-interpolation-filters="sRGB">
<feFlood flood-opacity="0" result="BackgroundImageFix"/>
<feBlend mode="normal" in="SourceGraphic" in2="BackgroundImageFix" result="shape"/>
<feGaussianBlur stdDeviation="147" result="effect1_foregroundBlur_17_497706"/>
</filter>
<filter id="filter15_f_17_497706" x="-449.751" y="6646.97" width="1233.04" height="1298.91" filterUnits="userSpaceOnUse" color-interpolation-filters="sRGB">
<feFlood flood-opacity="0" result="BackgroundImageFix"/>
<feBlend mode="normal" in="SourceGraphic" in2="BackgroundImageFix" result="shape"/>
<feGaussianBlur stdDeviation="147" result="effect1_foregroundBlur_17_497706"/>
</filter>
<filter id="filter16_f_17_497706" x="309.962" y="5862.64" width="1239.59" height="1302.73" filterUnits="userSpaceOnUse" color-interpolation-filters="sRGB">
<feFlood flood-opacity="0" result="BackgroundImageFix"/>
<feBlend mode="normal" in="SourceGraphic" in2="BackgroundImageFix" result="shape"/>
<feGaussianBlur stdDeviation="147" result="effect1_foregroundBlur_17_497706"/>
</filter>
<filter id="filter17_f_17_497706" x="358.287" y="6244.99" width="1332.02" height="1374.28" filterUnits="userSpaceOnUse" color-interpolation-filters="sRGB">
<feFlood flood-opacity="0" result="BackgroundImageFix"/>
<feBlend mode="normal" in="SourceGraphic" in2="BackgroundImageFix" result="shape"/>
<feGaussianBlur stdDeviation="147" result="effect1_foregroundBlur_17_497706"/>
</filter>
<filter id="filter18_f_17_497706" x="411.548" y="3930.4" width="1341.42" height="1194.7" filterUnits="userSpaceOnUse" color-interpolation-filters="sRGB">
<feFlood flood-opacity="0" result="BackgroundImageFix"/>
<feBlend mode="normal" in="SourceGraphic" in2="BackgroundImageFix" result="shape"/>
<feGaussianBlur stdDeviation="147" result="effect1_foregroundBlur_17_497706"/>
</filter>
<filter id="filter19_f_17_497706" x="-282.979" y="4309.44" width="1341.42" height="1194.7" filterUnits="userSpaceOnUse" color-interpolation-filters="sRGB">
<feFlood flood-opacity="0" result="BackgroundImageFix"/>
<feBlend mode="normal" in="SourceGraphic" in2="BackgroundImageFix" result="shape"/>
<feGaussianBlur stdDeviation="147" result="effect1_foregroundBlur_17_497706"/>
</filter>
<filter id="filter20_f_17_497706" x="765.761" y="4187.28" width="1158.86" height="1341.85" filterUnits="userSpaceOnUse" color-interpolation-filters="sRGB">
<feFlood flood-opacity="0" result="BackgroundImageFix"/>
<feBlend mode="normal" in="SourceGraphic" in2="BackgroundImageFix" result="shape"/>
<feGaussianBlur stdDeviation="147" result="effect1_foregroundBlur_17_497706"/>
</filter>
<filter id="filter21_f_17_497706" x="383.605" y="4730.69" width="1542.51" height="1078.49" filterUnits="userSpaceOnUse" color-interpolation-filters="sRGB">
<feFlood flood-opacity="0" result="BackgroundImageFix"/>
<feBlend mode="normal" in="SourceGraphic" in2="BackgroundImageFix" result="shape"/>
<feGaussianBlur stdDeviation="147" result="effect1_foregroundBlur_17_497706"/>
</filter>
<filter id="filter22_f_17_497706" x="417.645" y="2431.5" width="1388.93" height="1285.36" filterUnits="userSpaceOnUse" color-interpolation-filters="sRGB">
<feFlood flood-opacity="0" result="BackgroundImageFix"/>
<feBlend mode="normal" in="SourceGraphic" in2="BackgroundImageFix" result="shape"/>
<feGaussianBlur stdDeviation="147" result="effect1_foregroundBlur_17_497706"/>
</filter>
<linearGradient id="paint0_linear_17_497706" x1="504" y1="1092" x2="-3.00026" y2="503.5" gradientUnits="userSpaceOnUse">
<stop stop-color="#26000D"/>
<stop offset="1" stop-color="#3C0015"/>
</linearGradient>
<linearGradient id="paint1_linear_17_497706" x1="674.864" y1="9163.66" x2="167.864" y2="8575.16" gradientUnits="userSpaceOnUse">
<stop stop-color="#26000D"/>
<stop offset="1" stop-color="#3C0015"/>
</linearGradient>
<linearGradient id="paint2_linear_17_497706" x1="696.858" y1="7216.55" x2="1338.9" y2="6779.33" gradientUnits="userSpaceOnUse">
<stop stop-color="#26000D"/>
<stop offset="1" stop-color="#3C0015"/>
</linearGradient>
<linearGradient id="paint3_linear_17_497706" x1="760.723" y1="5220.59" x2="1523.88" y2="5365.42" gradientUnits="userSpaceOnUse">
<stop stop-color="#26000D"/>
<stop offset="1" stop-color="#3C0015"/>
</linearGradient>
<linearGradient id="paint4_linear_17_497706" x1="1461.8" y1="3311.94" x2="755.216" y2="2989.27" gradientUnits="userSpaceOnUse">
<stop stop-color="#26000D"/>
<stop offset="1" stop-color="#3C0015"/>
</linearGradient>
<clipPath id="clip0_17_497706">
<rect width="1440" height="10302" fill="white"/>
</clipPath>
</defs>
</svg>
